[Header]
FileType HTR
DataType HTRS
FileVersion 1
NumSegments 64
NumFrames 3
DataFrameRate 30
EulerRotationOrder ZYX
CalibrationUnits mm
RotationUnits Degrees
GlobalAxisofGravity Y
BoneLengthAxis Y
ScaleFactor 1.0
[SegmentNames&Hierarchy]
Hips	GLOBAL
Spine	Hips
Spine1	Spine
Spine2	Spine1
Neck	Spine2
Head	Neck
LeftEye	Head
RightEye	Head
LeftShoulder	Spine2
LeftArm	LeftShoulder
LeftForeArm	LeftArm
LeftHand	LeftForeArm
LeftHandThumb1	LeftHand
LeftHandThumb2	LeftHandThumb1
LeftHandThumb3	LeftHandThumb2
LeftHandThumb4	LeftHandThumb3
LeftHandIndex1	LeftHand
LeftHandIndex2	LeftHandIndex1
LeftHandIndex3	LeftHandIndex2
LeftHandIndex4	LeftHandIndex3
LeftHandMiddle1	LeftHand
LeftHandMiddle2	LeftHandMiddle1
LeftHandMiddle3	LeftHandMiddle2
LeftHandMiddle4	LeftHandMiddle3
LeftHandRing1	LeftHand
LeftHandRing2	LeftHandRing1
LeftHandRing3	LeftHandRing2
LeftHandRing4	LeftHandRing3
LeftHandPinky1	LeftHand
LeftHandPinky2	LeftHandPinky1
LeftHandPinky3	LeftHandPinky2
LeftHandPinky4	LeftHandPinky3
RightShoulder	Spine2
RightArm	RightShoulder
RightForeArm	RightArm
RightHand	RightForeArm
RightHandPinky1	RightHand
RightHandPinky2	RightHandPinky1
RightHandPinky3	RightHandPinky2
RightHandPinky4	RightHandPinky3
RightHandRing1	RightHand
RightHandRing2	RightHandRing1
RightHandRing3	RightHandRing2
RightHandRing4	RightHandRing3
RightHandMiddle1	RightHand
RightHandMiddle2	RightHandMiddle1
RightHandMiddle3	RightHandMiddle2
RightHandMiddle4	RightHandMiddle3
RightHandIndex1	RightHand
RightHandIndex2	RightHandIndex1
RightHandIndex3	RightHandIndex2
RightHandIndex4	RightHandIndex3
RightHandThumb1	RightHand
RightHandThumb2	RightHandThumb1
RightHandThumb3	RightHandThumb2
RightHandThumb4	RightHandThumb3
LeftUpLeg	Hips
LeftLeg	LeftUpLeg
LeftFoot	LeftLeg
LeftToeBase	LeftFoot
RightUpLeg	Hips
RightLeg	RightUpLeg
RightFoot	RightLeg
RightToeBase	RightFoot
[BasePosition]
Hips	0	0	0	0	0	0	1
Spine	0	0	0	0	0	0	1
Spine1	0	0	0	0	0	0	1
Spine2	0	0	0	0	0	0	1
Neck	0	0	0	0	0	0	1
Head	0	0	0	0	0	0	1
LeftEye	0	0	0	0	0	0	1
RightEye	0	0	0	0	0	0	1
LeftShoulder	0	0	0	0	0	0	1
LeftArm	0	0	0	0	0	0	1
LeftForeArm	0	0	0	0	0	0	1
LeftHand	0	0	0	0	0	0	1
LeftHandThumb1	0	0	0	0	0	0	1
LeftHandThumb2	0	0	0	0	0	0	1
LeftHandThumb3	0	0	0	0	0	0	1
LeftHandThumb4	0	0	0	0	0	0	1
LeftHandIndex1	0	0	0	0	0	0	1
LeftHandIndex2	0	0	0	0	0	0	1
LeftHandIndex3	0	0	0	0	0	0	1
LeftHandIndex4	0	0	0	0	0	0	1
LeftHandMiddle1	0	0	0	0	0	0	1
LeftHandMiddle2	0	0	0	0	0	0	1
LeftHandMiddle3	0	0	0	0	0	0	1
LeftHandMiddle4	0	0	0	0	0	0	1
LeftHandRing1	0	0	0	0	0	0	1
LeftHandRing2	0	0	0	0	0	0	1
LeftHandRing3	0	0	0	0	0	0	1
LeftHandRing4	0	0	0	0	0	0	1
LeftHandPinky1	0	0	0	0	0	0	1
LeftHandPinky2	0	0	0	0	0	0	1
LeftHandPinky3	0	0	0	0	0	0	1
LeftHandPinky4	0	0	0	0	0	0	1
RightShoulder	0	0	0	0	0	0	1
RightArm	0	0	0	0	0	0	1
RightForeArm	0	0	0	0	0	0	1
RightHand	0	0	0	0	0	0	1
RightHandPinky1	0	0	0	0	0	0	1
RightHandPinky2	0	0	0	0	0	0	1
RightHandPinky3	0	0	0	0	0	0	1
RightHandPinky4	0	0	0	0	0	0	1
RightHandRing1	0	0	0	0	0	0	1
RightHandRing2	0	0	0	0	0	0	1
RightHandRing3	0	0	0	0	0	0	1
RightHandRing4	0	0	0	0	0	0	1
RightHandMiddle1	0	0	0	0	0	0	1
RightHandMiddle2	0	0	0	0	0	0	1
RightHandMiddle3	0	0	0	0	0	0	1
RightHandMiddle4	0	0	0	0	0	0	1
RightHandIndex1	0	0	0	0	0	0	1
RightHandIndex2	0	0	0	0	0	0	1
RightHandIndex3	0	0	0	0	0	0	1
RightHandIndex4	0	0	0	0	0	0	1
RightHandThumb1	0	0	0	0	0	0	1
RightHandThumb2	0	0	0	0	0	0	1
RightHandThumb3	0	0	0	0	0	0	1
RightHandThumb4	0	0	0	0	0	0	1
LeftUpLeg	0	0	0	0	0	0	1
LeftLeg	0	0	0	0	0	0	1
LeftFoot	0	0	0	0	0	0	1
LeftToeBase	0	0	0	0	0	0	1
RightUpLeg	0	0	0	0	0	0	1
RightLeg	0	0	0	0	0	0	1
RightFoot	0	0	0	0	0	0	1
RightToeBase	0	0	0	0	0	0	1
[Hips]
15	819.8237305	971.602478	3.039458036	9.783130646	62.44210052	5.035550117	1.0
16	876.6036987	988.506958	4.189441204	9.112998962	63.90991974	4.655123234	1.0
17	932.5410156	1001.831299	5.462131023	7.480718613	65.16364288	3.054941654	1.0
[Spine]
15	0	101.8159943	1.315000057	5.892843246	-5.070641994	-3.221124649	1.0
16	0	101.8159943	1.315000057	5.928515911	-6.016233921	-2.438193798	1.0
17	0	101.8159943	1.315000057	5.948043346	-6.7488451	-1.34714818	1.0
[Spine1]
15	0	100.8349991	-10.00800037	4.214904308	-4.192292213	-0.997602582	1.0
16	0	100.8349991	-10.00800037	4.198937893	-4.479032993	-0.6890001297	1.0
17	0	100.8349991	-10.00800037	4.214121819	-4.617563248	-0.2684096396	1.0
[Spine2]
15	0	91	-13.73399925	4.191590786	-4.207332611	-1.021170735	1.0
16	0	91	-13.73399925	4.180876255	-4.495303631	-0.7080821395	1.0
17	0	91	-13.73399925	4.192518234	-4.638879776	-0.2880128026	1.0
[Neck]
15	0	166.7169952	-25.16200066	4.102873325	-5.51750803	-1.972275376	1.0
16	0	166.7169952	-25.16200066	4.509981155	-5.455273628	-2.213029385	1.0
17	0	166.7169952	-25.16200066	4.840420246	-5.429965019	-2.332693815	1.0
[Head]
15	0	96.17900085	16.84999847	-13.24140072	-33.41197586	14.84584999	1.0
16	0	96.17900085	16.84999847	-12.18447208	-33.63837051	13.6865778	1.0
17	0	96.17900085	16.84999847	-11.44464874	-33.83768463	12.80982399	1.0
[LeftEye]
15	30.6760006	64.09500122	92.83599854	0	0	0	1.0
16	30.6760006	64.09500122	92.83599854	0	0	0	1.0
17	30.6760006	64.09500122	92.83599854	0	0	0	1.0
[RightEye]
15	-30.6760006	64.09500122	92.83499908	0	0	0	1.0
16	-30.6760006	64.09500122	92.83499908	0	0	0	1.0
17	-30.6760006	64.09500122	92.83499908	0	0	0	1.0
[LeftShoulder]
15	45.70400238	109.4599991	-26.28000069	0.2624473572	-5.286468029	-10.12628555	1.0
16	45.70400238	109.4599991	-26.28000069	-0.4234392941	-5.998440266	-9.938598633	1.0
17	45.70400238	109.4599991	-26.28000069	-1.123529911	-6.64636898	-9.68510437	1.0
[LeftArm]
15	105.923996	-5.24600029	-22.32099915	27.37048531	-9.410303116	-60.56742096	1.0
16	105.923996	-5.24600029	-22.32099915	27.76246643	-12.47869301	-60.31937027	1.0
17	105.923996	-5.24600029	-22.32099915	27.22377396	-15.36360168	-60.26245499	1.0
[LeftForeArm]
15	278.414978	-0.0009999999311	0	9.684761153e-07	-8.280678749	-0.0002026302827	1.0
16	278.414978	-0.0009999999311	0	-3.62667862e-07	-9.510066986	-0.0002060993138	1.0
17	278.414978	-0.0009999999311	0	6.186889436e-07	-11.24458694	-0.000215870532	1.0
[LeftHand]
15	283.2879944	0	0	0.9321200848	3.432227135	15.66064072	1.0
16	283.2879944	0	0	4.272179604	3.448055983	19.0641613	1.0
17	283.2879944	0	0	5.754887581	2.697907209	21.14169121	1.0
[LeftHandThumb1]
15	24.6609993	-15.75	26.8239994	0.9464570284	1.151123047	0.2541034818	1.0
16	24.6609993	-15.75	26.8239994	0.9464570284	1.151123047	0.2541034818	1.0
17	24.6609993	-15.75	26.8239994	0.9464570284	1.151123047	0.2541034818	1.0
[LeftHandThumb2]
15	32.29800034	-18.64699936	18.64699936	16.76757431	2.258416653	16.97444725	1.0
16	32.29800034	-18.64699936	18.64699936	16.87574387	2.729091644	17.51383972	1.0
17	32.29800034	-18.64699936	18.64699936	16.44341278	3.199566841	18.30086327	1.0
[LeftHandThumb3]
15	26.52600098	-15.31499958	15.31499958	-4.47403717	-16.48134232	23.41213989	1.0
16	26.52600098	-15.31499958	15.31499958	-4.264026642	-15.94357204	23.33028984	1.0
17	26.52600098	-15.31499958	15.31499958	-3.51994729	-14.11120701	22.83440781	1.0
[LeftHandThumb4]
15	19.54599953	-11.28499985	11.28499985	0	0	0	1.0
16	19.54599953	-11.28499985	11.28499985	0	0	0	1.0
17	19.54599953	-11.28499985	11.28499985	0	0	0	1.0
[LeftHandIndex1]
15	91.09299469	-5.170999527	22.60099792	-1.642048836	0.8446606994	-29.63645744	1.0
16	91.09299469	-5.170999527	22.60099792	-1.624979258	0.3006520569	-28.69048882	1.0
17	91.09299469	-5.170999527	22.60099792	-1.525802255	-0.7155746818	-26.39515877	1.0
[LeftHandIndex2]
15	36.76399994	0	0	-0.1295443177	1.223668575	-12.0855341	1.0
16	36.76399994	0	0	-0.1293662488	1.222854733	-12.077384	1.0
17	36.76399994	0	0	-0.1287036985	1.219750881	-12.04625511	1.0
[LeftHandIndex3]
15	28.83100128	0	0	-0.1347630471	1.247802854	-12.32769299	1.0
16	28.83100128	0	0	-0.134586066	1.246986747	-12.31949043	1.0
17	28.83100128	0	0	-0.133904472	1.243872404	-12.28822231	1.0
[LeftHandIndex4]
15	23.92700005	0	0	0	0	0	1.0
16	23.92700005	0	0	0	0	0	1.0
17	23.92700005	0	0	0	0	0	1.0
[LeftHandMiddle1]
15	95.33399963	0	0	-2.267454863	4.869531155	-34.06348419	1.0
16	95.33399963	0	0	-2.220050097	4.611546516	-33.5467186	1.0
17	95.33399963	0	0	-2.094573498	3.965085506	-32.1628685	1.0
[LeftHandMiddle2]
15	36.98199844	0	0	-0.3048695028	1.862689376	-18.58875847	1.0
16	36.98199844	0	0	-0.3050459623	1.863212109	-18.59412956	1.0
17	36.98199844	0	0	-0.3041978776	1.860700369	-18.56813622	1.0
[LeftHandMiddle3]
15	29.50900078	0	0	-0.1102516428	1.129857183	-11.14638615	1.0
16	29.50900078	0	0	-0.1103567109	1.130398631	-11.15180016	1.0
17	29.50900078	0	0	-0.1098480523	1.127803683	-11.12587261	1.0
[LeftHandMiddle4]
15	28.3390007	0	0	0	0	0	1.0
16	28.3390007	0	0	0	0	0	1.0
17	28.3390007	0	0	0	0	0	1.0
[LeftHandRing1]
15	91.04499817	-0.4390000105	-18.65100098	-2.444638968	7.868247032	-36.01038361	1.0
16	91.04499817	-0.4390000105	-18.65100098	-2.413892984	7.885390759	-35.68188477	1.0
17	91.04499817	-0.4390000105	-18.65100098	-2.291818142	7.745598316	-34.36236191	1.0
[LeftHandRing2]
15	31.54000092	0	0	-0.4663946033	2.287242651	-23.04782486	1.0
16	31.54000092	0	0	-0.4688181281	2.292931318	-23.10852432	1.0
17	31.54000092	0	0	-0.4719889462	2.300325632	-23.18748093	1.0
[LeftHandRing3]
15	29.37700081	0	0	-0.3348092437	1.949398398	-19.48886299	1.0
16	29.37700081	0	0	-0.336885184	1.955260992	-19.54987335	1.0
17	29.37700081	0	0	-0.3396235704	1.962956905	-19.63004303	1.0
[LeftHandRing4]
15	26.47500038	0	0	0	0	0	1.0
16	26.47500038	0	0	0	0	0	1.0
17	26.47500038	0	0	0	0	0	1.0
[LeftHandPinky1]
15	80.77799988	-4.887000084	-38.06099701	-2.63345933	5.45331192	-37.84897995	1.0
16	80.77799988	-4.887000084	-38.06099701	-2.622469664	5.749462605	-37.64427948	1.0
17	80.77799988	-4.887000084	-38.06099701	-2.561271906	5.665369034	-37.0448494	1.0
[LeftHandPinky2]
15	36	0	0	-0.4950729609	2.353431702	-23.75594139	1.0
16	36	0	0	-0.500213325	2.365077734	-23.88091469	1.0
17	36	0	0	-0.505541265	2.377064705	-24.00969696	1.0
[LeftHandPinky3]
15	21.14200211	0	0	-0.2154044211	1.571967244	-15.60430336	1.0
16	21.14200211	0	0	-0.2189659476	1.584647298	-15.73353863	1.0
17	21.14200211	0	0	-0.2226929665	1.597802639	-15.86765194	1.0
[LeftHandPinky4]
15	19.75699997	0	0	0	0	0	1.0
16	19.75699997	0	0	0	0	0	1.0
17	19.75699997	0	0	0	0	0	1.0
[RightShoulder]
15	-45.70000076	109.4620056	-26.28000069	0.5409523845	1.782221556	8.217889786	1.0
16	-45.70000076	109.4620056	-26.28000069	0.7087674737	0.2323900461	7.875950813	1.0
17	-45.70000076	109.4620056	-26.28000069	0.8933834434	-1.274670362	7.621548653	1.0
[RightArm]
15	-105.9280014	-5.248000145	-22.32099915	18.00774193	14.00387001	71.06801605	1.0
16	-105.9280014	-5.248000145	-22.32099915	18.03454208	12.25067997	70.47978973	1.0
17	-105.9280014	-5.248000145	-22.32099915	17.84351921	10.35987377	69.60727692	1.0
[RightForeArm]
15	-278.414978	0	0	7.13820009e-06	34.44910049	2.751109787e-05	1.0
16	-278.414978	0	0	2.270532022e-22	33.39039993	4.783983968e-06	1.0
17	-278.414978	0	0	7.91016555e-06	31.09552002	-6.726594165e-06	1.0
[RightHand]
15	-283.2879944	0	0.0009999999311	9.960246086	25.40701294	-5.037834644	1.0
16	-283.2879944	0	0.0009999999311	8.910464287	21.76536369	-4.811430931	1.0
17	-283.2879944	0	0.0009999999311	6.867182732	17.10858154	-4.434247017	1.0
[RightHandPinky1]
15	-80.76699829	-4.885000229	-38.06000137	-1.621979594	-3.422921896	28.49541283	1.0
16	-80.76699829	-4.885000229	-38.06000137	-1.600436449	-3.604506969	28.20124435	1.0
17	-80.76699829	-4.885000229	-38.06000137	-1.572447896	-3.779825211	27.81927872	1.0
[RightHandPinky2]
15	-36	0	0.0009999999311	-0.3657317162	-1.805386901	22.92218971	1.0
16	-36	0	0.0009999999311	-0.3650151491	-1.803674579	22.89927292	1.0
17	-36	0	0.0009999999311	-0.3649736047	-1.8035537	22.89804459	1.0
[RightHandPinky3]
15	-21.14200211	0	0	-0.4170260429	-1.922221184	24.47970772	1.0
16	-21.14200211	0	0	-0.4186479747	-1.925803065	24.52819633	1.0
17	-21.14200211	0	0	-0.4182469547	-1.924922585	24.51620865	1.0
[RightHandPinky4]
15	-19.75699997	0	0	0	0	0	1.0
16	-19.75699997	0	0	0	0	0	1.0
17	-19.75699997	0	0	0	0	0	1.0
[RightHandRing1]
15	-91.03599548	-0.4390000105	-18.65100098	-1.770373583	-3.14068675	30.68795204	1.0
16	-91.03599548	-0.4390000105	-18.65100098	-1.811990738	-3.055675268	31.23690987	1.0
17	-91.03599548	-0.4390000105	-18.65100098	-1.823103189	-3.053675413	31.38284111	1.0
[RightHandRing2]
15	-31.54000092	0	0	-0.6921789646	-2.437320948	31.7040844	1.0
16	-31.54000092	0	0	-0.6977344155	-2.446279287	31.83445549	1.0
17	-31.54000092	0	0	-0.6988469362	-2.448049545	31.8603344	1.0
[RightHandRing3]
15	-29.37700081	0	0	-0.76959306	-2.558302164	33.4802742	1.0
16	-29.37700081	0	0	-0.7755130529	-2.567207098	33.61259842	1.0
17	-29.37700081	0	0	-0.7766936421	-2.568999767	33.6388855	1.0
[RightHandRing4]
15	-26.47500038	0	0	0	0	0	1.0
16	-26.47500038	0	0	0	0	0	1.0
17	-26.47500038	0	0	0	0	0	1.0
[RightHandMiddle1]
15	-95.32500458	0	0	-2.052419901	-1.286604404	34.37733459	1.0
16	-95.32500458	0	0	-2.069314003	-1.251984954	34.59261703	1.0
17	-95.32500458	0	0	-2.051306725	-1.274887323	34.36386871	1.0
[RightHandMiddle2]
15	-36.98199844	0	0	-0.4478389621	-1.988466501	25.38279724	1.0
16	-36.98199844	0	0	-0.4546033144	-2.002604485	25.5765152	1.0
17	-36.98199844	0	0	-0.4578968287	-2.009502649	25.67089653	1.0
[RightHandMiddle3]
15	-29.50900078	0	0	-0.3135246336	-1.678485274	21.1838932	1.0
16	-29.50900078	0	0	-0.3192781508	-1.693253517	21.37965965	1.0
17	-29.50900078	0	0	-0.322101444	-1.700440288	21.47509003	1.0
[RightHandMiddle4]
15	-28.3390007	0	0.0009999999311	0	0	0	1.0
16	-28.3390007	0	0.0009999999311	0	0	0	1.0
17	-28.3390007	0	0.0009999999311	0	0	0	1.0
[RightHandIndex1]
15	-91.08300018	-5.167999744	22.60099792	-0.8375332952	6.868837357	18.84806252	1.0
16	-91.08300018	-5.167999744	22.60099792	-0.8348036408	6.768501759	18.94665718	1.0
17	-91.08300018	-5.167999744	22.60099792	-0.8076578379	6.63194418	18.75969887	1.0
[RightHandIndex2]
15	-36.76399994	0	0	-0.5726580024	-2.232452154	28.77106667	1.0
16	-36.76399994	0	0	-0.5753249526	-2.237301826	28.83960915	1.0
17	-36.76399994	0	0	-0.5781877041	-2.24246335	28.91247749	1.0
[RightHandIndex3]
15	-28.83100128	0	0	-0.2362610251	-1.461634278	18.36275673	1.0
16	-28.83100128	0	0	-0.2380368263	-1.466937304	18.43198013	1.0
17	-28.83100128	0	0	-0.2399121225	-1.472595811	18.50555992	1.0
[RightHandIndex4]
15	-23.92700005	0	0	0	0	0	1.0
16	-23.92700005	0	0	0	0	0	1.0
17	-23.92700005	0	0	0	0	0	1.0
[RightHandThumb1]
15	-24.64799881	-15.72700024	26.82600021	30.15343666	21.14214134	-10.25145817	1.0
16	-24.64799881	-15.72700024	26.82600021	30.15343666	21.14214134	-10.25145817	1.0
17	-24.64799881	-15.72700024	26.82600021	30.15343666	21.14214134	-10.25145817	1.0
[RightHandThumb2]
15	-32.29800034	-18.64699936	18.64699936	10.0122509	-21.73806953	0.175262183	1.0
16	-32.29800034	-18.64699936	18.64699936	9.523609161	-23.71652031	0.1233412623	1.0
17	-32.29800034	-18.64699936	18.64699936	9.457406998	-24.38952065	0.02731475234	1.0
[RightHandThumb3]
15	-26.52600098	-15.31399918	15.31399918	-11.77551365	-13.83575535	-10.28434467	1.0
16	-26.52600098	-15.31399918	15.31399918	-11.76692295	-13.85546112	-10.27892685	1.0
17	-26.52600098	-15.31399918	15.31399918	-11.75898647	-13.87380219	-10.27467251	1.0
[RightHandThumb4]
15	-19.54599953	-11.28499985	11.28499985	0	0	0	1.0
16	-19.54599953	-11.28499985	11.28499985	0	0	0	1.0
17	-19.54599953	-11.28499985	11.28499985	0	0	0	1.0
[LeftUpLeg]
15	82.07800293	-67.51699829	-15.99599934	-32.81063461	7.013503551	-4.667891502	1.0
16	82.07800293	-67.51699829	-15.99599934	-26.39825821	6.326463699	-5.489142418	1.0
17	82.07800293	-67.51699829	-15.99599934	-20.04950905	5.962786674	-5.701269627	1.0
[LeftLeg]
15	0	-443.7049866	2.845999956	38.84487915	-0.4421584308	-0.6344436407	1.0
16	0	-443.7049866	2.845999956	33.96453476	-0.7067756653	-0.7993608117	1.0
17	0	-443.7049866	2.845999956	28.63669205	-0.8994467258	-0.8195824027	1.0
[LeftFoot]
15	0	-444.2789917	-29.8219986	-11.56309223	0.4788799286	1.958914757	1.0
16	0	-444.2789917	-29.8219986	-12.77076912	0.6146414876	3.295796871	1.0
17	0	-444.2789917	-29.8219986	-13.61395264	0.644965589	4.40810585	1.0
[LeftToeBase]
15	0	-87.28699493	107.1060028	-8.75940609	-1.301506472e-05	2.155611128e-06	1.0
16	0	-87.28699493	107.1060028	-8.573127747	1.482824337e-05	9.125041629e-07	1.0
17	0	-87.28699493	107.1060028	-8.308005333	-4.957084002e-06	1.221448315e-06	1.0
[RightUpLeg]
15	-82.07800293	-67.51699829	-15.99599934	-23.88272095	1.37779665	-14.74621964	1.0
16	-82.07800293	-67.51699829	-15.99599934	-28.5768261	-0.07280843705	-10.42093372	1.0
17	-82.07800293	-67.51699829	-15.99599934	-32.38586426	-0.6588943601	-5.831746101	1.0
[RightLeg]
15	0	-443.7049866	2.861999989	71.43667603	2.905184507	9.382663727	1.0
16	0	-443.7049866	2.861999989	68.84374237	2.715086699	7.450753689	1.0
17	0	-443.7049866	2.861999989	61.97066498	2.246267557	4.307628632	1.0
[RightFoot]
15	0	-444.2770081	-29.83799934	5.375076294	0.4822868109	1.810820103	1.0
16	0	-444.2770081	-29.83799934	2.120434284	-0.08801241964	2.788603306	1.0
17	0	-444.2770081	-29.83799934	-1.224910617	-0.01235813089	3.450497627	1.0
[RightToeBase]
15	0	-87.28699493	107.1060028	-10.35805607	-1.82229669e-05	5.977355613e-06	1.0
16	0	-87.28699493	107.1060028	-8.963160515	-1.176768183e-05	5.588887689e-06	1.0
17	0	-87.28699493	107.1060028	-8.198111534	1.974657971e-05	-8.948525647e-06	1.0
[EndOfFile]
